HIERARCHY
ROOT f_avg_Pelvis
{
	OFFSET 	 -0.087631	 90.931465	 2.782112
	CHANNELS 6 Xposition Yposition Zposition Xrotation Yrotation Zrotation 
	JOINT f_avg_L_Hip
	{
		OFFSET 	 7.136119	 -8.958382	 -0.804619
		CHANNELS 3 Xrotation Yrotation Zrotation 
		JOINT f_avg_L_Knee
		{
			OFFSET 	 3.066892	 -36.42094	 -0.668891
			CHANNELS 3 Xrotation Yrotation Zrotation 
			JOINT f_avg_L_Ankle
			{
				OFFSET 	 -1.155389	 -38.334843	 -4.350161
				CHANNELS 3 Xrotation Yrotation Zrotation 
				JOINT f_avg_L_Foot
				{
					OFFSET 	 2.333767	 -5.464483	 11.437012
					CHANNELS 3 Xrotation Yrotation Zrotation 
					End Site
					{
						OFFSET 	 0.0	 12.888455	 0.0
					}
				}
			}
		}
	}
	JOINT f_avg_R_Hip
	{
		OFFSET 	 -6.901202	 -8.896049	 -0.479568
		CHANNELS 3 Xrotation Yrotation Zrotation 
		JOINT f_avg_R_Knee
		{
			OFFSET 	 -3.615239	 -37.065044	 -0.918532
			CHANNELS 3 Xrotation Yrotation Zrotation 
			JOINT f_avg_R_Ankle
			{
				OFFSET 	 1.402864	 -38.363781	 -4.18916
				CHANNELS 3 Xrotation Yrotation Zrotation 
				JOINT f_avg_R_Foot
				{
					OFFSET 	 -2.204322	 -4.640955	 11.789971
					CHANNELS 3 Xrotation Yrotation Zrotation 
					End Site
					{
						OFFSET 	 0.0	 12.860828	 0.0
					}
				}
			}
		}
	}
	JOINT f_avg_Spine1
	{
		OFFSET 	 -0.250821	 10.325684	 -2.218514
		CHANNELS 3 Xrotation Yrotation Zrotation 
		JOINT f_avg_Spine2
		{
			OFFSET 	 0.358096	 12.765762	 -0.171301
			CHANNELS 3 Xrotation Yrotation Zrotation 
			JOINT f_avg_Spine3
			{
				OFFSET 	 0.202718	 4.907227	 2.786721
				CHANNELS 3 Xrotation Yrotation Zrotation 
				JOINT f_avg_Neck
				{
					OFFSET 	 -0.196263	 20.824318	 -4.976548
					CHANNELS 3 Xrotation Yrotation Zrotation 
					JOINT f_avg_Head
					{
						OFFSET 	 0.351716	 6.232208	 5.020526
						CHANNELS 3 Xrotation Yrotation Zrotation 
						End Site
						{
							OFFSET 	 0.0	 8.010605	 0.0
						}
					}
				}
				JOINT f_avg_L_Collar
				{
					OFFSET 	 7.529828	 11.778038	 -3.687482
					CHANNELS 3 Xrotation Yrotation Zrotation 
					JOINT f_avg_L_Shoulder
					{
						OFFSET 	 8.531712	 3.173904	 -0.729284
						CHANNELS 3 Xrotation Yrotation Zrotation 
						JOINT f_avg_L_Elbow
						{
							OFFSET 	 25.124733	 -1.196671	 -2.751844
							CHANNELS 3 Xrotation Yrotation Zrotation 
							JOINT f_avg_L_Wrist
							{
								OFFSET 	 23.801907	 0.900681	 0.004374
								CHANNELS 3 Xrotation Yrotation Zrotation 
								JOINT f_avg_L_Hand
								{
									OFFSET 	 7.966774	 -0.968246	 -1.320559
									CHANNELS 3 Xrotation Yrotation Zrotation 
									End Site
									{
										OFFSET 	 0.0	 8.133316	 0.0
									}
								}
							}
						}
					}
				}
				JOINT f_avg_R_Collar
				{
					OFFSET 	 -7.703282	 11.560616	 -4.181066
					CHANNELS 3 Xrotation Yrotation Zrotation 
					JOINT f_avg_R_Shoulder
					{
						OFFSET 	 -8.920287	 3.278488	 -0.980219
						CHANNELS 3 Xrotation Yrotation Zrotation 
						JOINT f_avg_R_Elbow
						{
							OFFSET 	 -24.598969	 -1.315247	 -2.016171
							CHANNELS 3 Xrotation Yrotation Zrotation 
							JOINT f_avg_R_Wrist
							{
								OFFSET 	 -24.517677	 0.862198	 -0.353152
								CHANNELS 3 Xrotation Yrotation Zrotation 
								JOINT f_avg_R_Hand
								{
									OFFSET 	 -8.040024	 -0.724792	 -1.041933
									CHANNELS 3 Xrotation Yrotation Zrotation 
									End Site
									{
										OFFSET 	 0.0	 8.139587	 0.0
									}
								}
							}
						}
					}
				}
			}
		}
	}
}

MOTION
Frames: 5
Frame Time: 0.041667
0.0 0.0 0.0 88.36604648976882 -67.27000931727548 89.16980521759803 -18.50225828809304 -4.782542493937811 -0.5627913802045306 101.40842050635293 -8.443595243344072 -1.1851340866299465 -8.557373258821388 9.512059879212606 0.49198001938765484 -17.781731723625466 -0.12969196554814252 6.669438310969603 -21.227138458723132 3.8867174089205068 1.8556119318974003 89.46937964346996 5.8213800690826725 3.442399327086856 -9.1731124255701 -9.072886400472788 0.4092059916878739 -13.791476427555716 1.1081492186148654 -9.140544972228557 13.978491581107836 -0.2620714390341658 0.4372800424026395 -7.301691989324402 0.8542457602442746 0.31960352592361246 -1.5058840070614317 -0.05051505049347742 -0.3522020697652013 -28.705097232087326 -2.1674758820999607 -0.879601192326128 -2.040374732819931 -1.0010725559333258 -1.0135585466371 -4.135999197254753 -4.606297082828553 -23.812816242661192 -7.075076757565702 -15.17859711476592 -46.94139416735699 -8.311504981727833 -23.25162201952894 11.103381363824319 -0.04975475136430492 -0.6575798139350659 -2.5049169152505595 1.204351250916749e-06 -6.76291861874289e-08 -3.4537157126921766e-06 -6.146309325044419 7.968575562110348 25.3433249027856 -7.103555785727933 16.592724817207223 45.38314580746311 -11.300373909622424 16.54157050369614 -10.642121064656727 2.702729320888803 -0.4319100516110873 4.378858062513304 -3.981763809503677e-08 -9.8650102412711e-08 -9.168294681341554e-08
-3.8415930490804087 -2.3909396666127734 -0.10963815522050702 88.39717394723219 -64.76556860985183 89.19148831818049 -15.345772648962342 -4.616778566558951 -0.5260591748735225 101.51320866716766 -8.233723495356351 -0.663857949206088 -8.268174015843538 9.622363605688854 0.3398490371322148 -17.87893754063245 -0.45624439752991625 6.756614134283299 -18.830311948759423 3.9400543561527304 2.2138161768925473 87.25522871492988 5.523167890904476 3.2891475113948094 -8.957077752121055 -9.00023626964996 0.33496226498574894 -13.763330114761603 1.0230875119388454 -9.21499285703712 12.125784026398478 -0.3284325818401385 0.4302417722005721 -7.509734052312958 0.9159200039909093 0.2925880377198114 -1.6394741042462784 -0.07356507586870172 -0.41010936564991207 -29.457830417423434 -2.1851396512092633 -1.0286886799103223 -2.4110832892233707 -0.8514994883364903 -1.0871271042797297 -4.236046886787715 -4.152438175517891 -23.6970508072031 -6.977289424711435 -15.120350446244506 -47.27066523411625 -8.156552398016515 -23.258144090248752 11.202626412036219 -0.3039350029651703 -0.5718328945705241 -3.47744852945785 4.8177088848139e-07 1.1887512343541825e-07 -1.8698708552044006e-06 -6.265149494899158 7.439514336297717 25.275030877953387 -7.086886387829698 16.638160270357133 45.96927349955947 -11.186028708371277 16.321938967038268 -10.686614115733237 2.352207417117795 -0.4967198708428207 5.428699656106788 2.6210904431139587e-07 2.111643303734438e-07 1.277745063204784e-07
-4.037377644767645 -2.589780493920898 -0.2251094547712782 88.82867358115685 -64.72548502082493 89.6684077143811 -15.897469222882409 -4.66008228174214 -0.4536556754575845 101.55804635632708 -8.257102683156619 -0.7503460628027464 -8.2806799169252 9.62504004349085 0.29382638530519484 -17.848527327038987 -0.458224548695003 6.808076289115174 -18.63910064166834 3.864529319424291 2.1100337344058584 87.27093379617608 5.543360619781905 3.24496595169944 -9.042305523474758 -8.998040520772962 0.2972057268466612 -13.719080272503815 1.0003922528153921 -9.177217346586344 12.266541163478289 -0.2605412933607358 0.409473833186996 -7.4806532315908125 0.9319504770518265 0.25932919001218724 -1.6499213986463477 -0.0363198455680071 -0.41623040343547235 -29.489982473580646 -2.177918423628915 -1.0481994820454983 -2.4576852095512938 -0.8625422228285217 -1.0734194250066222 -4.274614661019848 -4.244484506283901 -23.766163970640967 -6.973801037673408 -15.140011468082868 -47.1449524080678 -8.186700750130848 -23.32576426165113 11.221980558704384 -0.2970261480406518 -0.5916177330363177 -3.4584539645403676 2.2367823429700898e-08 1.294573404928486e-07 -9.970383470873664e-07 -6.2830420056566 7.629752082763117 25.359296759522692 -7.1387895519403255 16.640397532495733 45.79642617110922 -11.238222218268087 16.16180405832262 -10.606891853264573 2.461348863470649 -0.4938803042169545 5.4340334991752774 3.8464832406480956e-07 9.927258426299365e-08 2.6009569613417935e-07
-1.9544119131308193 -1.4632689310723848 -0.30590098337981253 89.44210100162316 -66.20372971274067 90.35124951333336 -18.554983847051425 -4.827416256161054 -0.41917574939456037 101.82418230620135 -8.436543305505479 -1.1767691235793933 -8.503902712780729 9.559078044781584 0.37440347956071623 -17.781472439739893 -0.256772259722202 6.775994455408816 -19.900137787483928 3.7652496300154548 1.8106362988659637 88.88294394952955 5.764618318155522 3.2655909816763904 -9.312157981781501 -9.03844696315066 0.26075962872599123 -13.69662891827206 1.0303123148874676 -9.063649585380293 13.581716305816894 -0.13967709002603876 0.38726749731243926 -7.3336935774220375 0.903800937917788 0.243437954613075 -1.5836131963785165 0.014028977688507827 -0.3849221996598877 -29.097542679285386 -2.1448860743023768 -0.9824550767226622 -2.2915949008792706 -0.9617402563153409 -1.0138641414968148 -4.265125152955078 -4.642694577280294 -23.92929213680436 -7.043083808369406 -15.203281336182666 -46.78282280903724 -8.322117306202578 -23.330428230292007 11.16193508884518 -0.10705089420098189 -0.6617025973016486 -2.863994401880952 -2.3451568719021132e-07 5.07878054552151e-08 -5.762980484729323e-07 -6.2334625197564275 8.165028588089351 25.52367039318554 -7.19462637914493 16.58772620659184 45.23565504624234 -11.37778995480088 16.044641455389954 -10.483503313193765 2.827682408948867 -0.46177004836286256 4.82732377413597 4.1304110597473723e-07 -2.11252005213336e-07 2.7892599944814884e-07
1.1309147273386628 -0.1389200868743785 -0.31298109810764885 89.99380039972581 -68.25908370686771 90.96549618561755 -21.717628979476167 -5.024462949499785 -0.5018200547770851 102.59175546313503 -8.69855784687057 -1.6736371457585821 -8.846320944195664 9.46209187276536 0.6014330512946555 -17.76774746038265 0.026781479199182896 6.61247744963649 -21.861074915733955 3.7555183840126567 1.5831783996693316 91.46165352296998 6.074631435807073 3.2946708870106347 -9.650000500643523 -9.093621434959358 0.19023196901426 -13.734064807232368 1.1028925293539393 -8.91064678218173 15.25260141641743 -0.04650021474231099 0.37627273196386746 -7.188056888871885 0.8331680294779819 0.2687705854987625 -1.486931355067299 0.0304171729746983 -0.3305156287860417 -28.576565558207328 -2.0835101488398675 -0.8761444644368762 -2.0241144254896315 -1.076270508305483 -0.9491313871819552 -4.221063532065169 -5.107576289167501 -24.09474445346038 -7.163575832633205 -15.276390442625754 -46.40294589436966 -8.482321956783347 -23.1477393336251 11.023820712597944 0.18864759566937256 -0.7230325683446112 -2.1098208638199094 -3.4953739048370304e-07 -3.046315088156435e-08 -3.4872981744335457e-07 -6.14913546917236 8.671200321891654 25.694787678162157 -7.190667354766501 16.467452115825317 44.65832836339999 -11.526197025990228 15.954151289291977 -10.39629654617453 3.249269726669448 -0.4428272717351332 4.0408728803380844 4.3252829299018154e-07 -4.973361018491273e-07 1.5791079181262448e-07
